<?xml version="1.0" encoding="UTF-8"?>
<!-- Uploaded to: SVG Repo, www.svgrepo.com, Generator: SVG Repo Mixer Tools -->
<svg width="800px" height="800px" fill="#000000" viewBox="0 0 32 32" xmlns="http://www.w3.org/2000/svg">
 <path d="m16 1.25-0.8125 1.1875s-0.53906 0.75391-1.0625 1.6562c-0.26172 0.45312-0.50781 0.92578-0.71875 1.4062-0.21094 0.48047-0.40625 0.92188-0.40625 1.5 0 1.6445 1.3555 3 3 3s3-1.3555 3-3c0-0.57812-0.19531-1.0195-0.40625-1.5-0.21094-0.48047-0.45703-0.95312-0.71875-1.4062-0.52344-0.90234-1.0625-1.6562-1.0625-1.6562zm0 8.75h-3v4h-6c-2.2109 0-4 1.7891-4 4 0 1.0156 0.375 1.9492 1 2.6562v7.3438h24v-7.3438c0.625-0.70703 1-1.6406 1-2.6562 0-2.2109-1.7891-4-4-4h-6v-4zm0-5.125c0.066406 0.10938 0.058594 0.10156 0.125 0.21875 0.23828 0.41016 0.49219 0.84766 0.65625 1.2188 0.16406 0.37109 0.21875 0.71484 0.21875 0.6875 0 0.55469-0.44531 1-1 1-0.55469 0-1-0.44531-1-1 0 0.027344 0.054688-0.31641 0.21875-0.6875 0.16406-0.37109 0.41797-0.80859 0.65625-1.2188 0.066406-0.11719 0.058594-0.10938 0.125-0.21875zm-1 7.125h2v2h-2zm-8 4h18c1.1914 0 2 0.80859 2 2s-0.80859 2-2 2-2-0.80859-2-2h-2c0 1.1914-0.80859 2-2 2s-2-0.80859-2-2h-2c0 1.1914-0.80859 2-2 2s-2-0.80859-2-2h-2c0 1.1914-0.80859 2-2 2s-2-0.80859-2-2 0.80859-2 2-2zm3 4.6562c0.73438 0.82812 1.8047 1.3438 3 1.3438 1.1953 0 2.2656-0.51562 3-1.3438 0.73438 0.82812 1.8047 1.3438 3 1.3438 1.1953 0 2.2656-0.51562 3-1.3438 0.73438 0.82812 1.8047 1.3438 3 1.3438 0.34766 0 0.67969-0.074219 1-0.15625v4.1562h-20v-4.1562c0.32031 0.082031 0.65234 0.15625 1 0.15625 1.1953 0 2.2656-0.51562 3-1.3438z"/>
</svg>
