<?xml version="1.0" encoding="UTF-8"?>
<svg width="800px" height="800px" fill="none" viewBox="0 0 24 24" xmlns="http://www.w3.org/2000/svg">
 <path d="m22 20.07v-7.89c0-5.6-4.5-10.18-10-10.18s-10 4.58-10 10.18v7.89c0 1.26 0.74998 1.6 1.67 0.76l1-0.91c0.37-0.34 0.97003-0.34 1.34 0l2 1.83c0.37 0.34 0.96997 0.34 1.34 0l2-1.83c0.37-0.34 0.97-0.34 1.34 0l2 1.83c0.37 0.34 0.97 0.34 1.34 0l2-1.83c0.37-0.34 0.97-0.34 1.34 0l1 0.91c0.88 0.84 1.63 0.5 1.63-0.76z" stroke="#292D32" stroke-linecap="round" stroke-linejoin="round" stroke-width="1.5"/>
 <path d="m8 14c2.37 1.78 5.63 1.78 8 0" stroke="#292D32" stroke-linecap="round" stroke-linejoin="round" stroke-width="1.5"/>
 <path d="m12 11c1.1046 0 2-0.8954 2-2s-0.8954-2-2-2-2 0.89543-2 2c0 1.1046 0.8954 2 2 2z" stroke="#292D32" stroke-linecap="round" stroke-linejoin="round" stroke-width="1.5"/>
</svg>
