<?xml version="1.0" encoding="UTF-8"?>
<!-- Uploaded to: SVG Repo, www.svgrepo.com, Generator: SVG Repo Mixer Tools -->
<svg width="800px" height="800px" fill="none" viewBox="0 0 24 24" xmlns="http://www.w3.org/2000/svg">
 <path d="m16 6c-1.6568 0-3 1.3432-3 3 0 1.6569 1.3432 3 3 3 1.6569 0 3-1.3431 3-3 0-1.6568-1.3431-3-3-3zm-5 3c0-2.7614 2.2386-5 5-5s5 2.2386 5 5c0 1.3193-0.511 2.5193-1.3458 3.4128 1.8409 0.5996 3.2634 1.7865 4.1722 3.1201 0.311 0.4564 0.1931 1.0785-0.2633 1.3895-0.4563 0.311-1.0785 0.1931-1.3895-0.2633-0.9757-1.4318-2.7558-2.6591-5.1736-2.6591-3.834 0-6 3.0742-6 5 0 0.5523-0.4477 1-1 1-0.55227 0-0.99999-0.4477-0.99999-1 0-0.692 0.15847-1.43 0.46081-2.1575-0.07703-0.0494-0.14852-0.1102-0.21193-0.1823-0.82085-0.934-2.0947-1.6602-3.7489-1.6602s-2.928 0.7262-3.7489 1.6602c-0.36459 0.4148-0.99645 0.4555-1.4113 0.0909-0.41484-0.3646-0.45556-0.9964-0.090969-1.4113 0.56015-0.6373 1.269-1.2034 2.1084-1.6191-0.83736-0.8172-1.3572-1.9582-1.3572-3.2207 0-2.4853 2.0147-4.5 4.5-4.5s4.5 2.0147 4.5 4.5c0 1.2625-0.51987 2.4035-1.3572 3.2207 0.7224 0.3578 1.3481 0.8269 1.8655 1.357 0.6437-0.8118 1.4803-1.5395 2.4839-2.0832-1.21-0.9126-1.9922-2.3622-1.9922-3.9945zm-8 1.5c0-1.3807 1.1193-2.5 2.5-2.5s2.5 1.1193 2.5 2.5c0 1.3807-1.1193 2.5-2.5 2.5s-2.5-1.1193-2.5-2.5z" clip-rule="evenodd" fill="#000" fill-rule="evenodd"/>
</svg>
