<?xml version="1.0" encoding="UTF-8"?>
<!-- Uploaded to: SVG Repo, www.svgrepo.com, Generator: SVG Repo Mixer Tools -->
<svg width="800px" height="800px" fill="none" viewBox="0 0 24 24" xmlns="http://www.w3.org/2000/svg">
 <path d="m22 9v6c0 0.23 0 0.45-0.02 0.67-0.04-0.06-0.09-0.12-0.14-0.17-0.81-0.93-2.01-1.5-3.34-1.5-1.26 0-2.41 0.52-3.23 1.36-0.79 0.81-1.27 1.92-1.27 3.14 0 0.84 0.24 1.64 0.65 2.32 0.23 0.38 0.52 0.73 0.86 1.02 0.05 0.05 0.1 0.09 0.16 0.14-0.21 0.02-0.44 0.02-0.67 0.02h-6c-5 0-7-2-7-7v-6c0-5 2-7 7-7h6c5 0 7 2 7 7z" stroke="#292D32" stroke-linecap="round" stroke-linejoin="round" stroke-width="1.5"/>
 <path d="m2.52 7.1099h18.96" stroke="#292D32" stroke-linecap="round" stroke-linejoin="round" stroke-width="1.5"/>
 <path d="m8.52 2.1099v4.86" stroke="#292D32" stroke-linecap="round" stroke-linejoin="round" stroke-width="1.5"/>
 <path d="m15.48 2.1099v4.41" stroke="#292D32" stroke-linecap="round" stroke-linejoin="round" stroke-width="1.5"/>
 <path d="m23 18.5c0 0.36-0.04 0.71-0.13 1.05-0.11 0.45-0.29 0.88-0.52 1.27-0.78 1.3-2.21 2.18-3.85 2.18-1.08 0-2.06-0.38-2.82-1.02h-0.01c-0.06-0.05-0.11-0.09-0.16-0.14-0.34-0.29-0.63-0.64-0.86-1.02-0.41-0.68-0.65-1.48-0.65-2.32 0-1.22 0.48-2.33 1.27-3.14 0.82-0.84 1.97-1.36 3.23-1.36 1.33 0 2.53 0.57 3.34 1.5 0.05 0.05 0.1 0.11 0.14 0.17 0.64 0.77 1.02 1.76 1.02 2.83z" stroke="#292D32" stroke-linecap="round" stroke-linejoin="round" stroke-miterlimit="10" stroke-width="1.5"/>
 <path d="m19.7 19.68-2.38-2.3801" stroke="#292D32" stroke-linecap="round" stroke-linejoin="round" stroke-miterlimit="10" stroke-width="1.5"/>
 <path d="m19.68 17.32-2.38 2.38" stroke="#292D32" stroke-linecap="round" stroke-linejoin="round" stroke-miterlimit="10" stroke-width="1.5"/>
</svg>
