<?xml version="1.0" encoding="UTF-8"?>
<!-- Uploaded to: SVG Repo, www.svgrepo.com, Generator: SVG Repo Mixer Tools -->
<svg width="800px" height="800px" fill="none" viewBox="0 0 24 24" xmlns="http://www.w3.org/2000/svg">
 <path d="m6.28 22c1.7231 0 3.12-1.3969 3.12-3.12s-1.3969-3.12-3.12-3.12c-1.7231 0-3.12 1.3969-3.12 3.12s1.3969 3.12 3.12 3.12z" stroke="#292D32" stroke-linecap="round" stroke-linejoin="round" stroke-width="1.5"/>
 <path d="m20.84 16.8v-12.2c0-2.6-1.63-2.96-3.28-2.51l-6.24 1.7c-1.14 0.31-1.92 1.21-1.92 2.51v12.57" stroke="#292D32" stroke-linecap="round" stroke-linejoin="round" stroke-width="1.5"/>
 <path d="m17.72 19.92c1.7231 0 3.12-1.3968 3.12-3.12 0-1.7231-1.3969-3.12-3.12-3.12-1.7232 0-3.12 1.3969-3.12 3.12 0 1.7232 1.3968 3.12 3.12 3.12z" stroke="#292D32" stroke-linecap="round" stroke-linejoin="round" stroke-width="1.5"/>
 <path d="m9.4 9.5199 11.44-3.12" stroke="#292D32" stroke-linecap="round" stroke-linejoin="round" stroke-width="1.5"/>
</svg>
