<?xml version="1.0" encoding="UTF-8"?>
<svg width="800px" height="800px" fill="none" viewBox="0 0 24 24" xmlns="http://www.w3.org/2000/svg">
 <path d="m19.54 6.54-3.07-3.07c-0.94-0.94-2.21-1.47-3.54-1.47h-4.93c-3 0-5 2-5 5v10c0 3 2 5 5 5h8c3 0 5-2 5-5v-6.93c0-1.33-0.53-2.6-1.46-3.53z" stroke="#292D32" stroke-linecap="round" stroke-linejoin="round" stroke-width="1.5"/>
 <path d="m10 18.5h4c1.65 0 3-1.35 3-3v-3c0-1.65-1.35-3-3-3h-4c-1.65 0-3 1.35-3 3v3c0 1.65 1.35 3 3 3z" stroke="#292D32" stroke-linecap="round" stroke-linejoin="round" stroke-width="1.5"/>
 <path d="m12 9.5v9" stroke="#292D32" stroke-linecap="round" stroke-linejoin="round" stroke-width="1.5"/>
 <path d="m7.5 14h9" stroke="#292D32" stroke-linecap="round" stroke-linejoin="round" stroke-width="1.5"/>
</svg>
