<?xml version="1.0" encoding="UTF-8"?>
<svg width="800px" height="800px" fill="none" viewBox="0 0 24 24" xmlns="http://www.w3.org/2000/svg">
 <path d="m8 2v3" stroke="#292D32" stroke-linecap="round" stroke-linejoin="round" stroke-miterlimit="10" stroke-width="1.5"/>
 <path d="m16 2v3" stroke="#292D32" stroke-linecap="round" stroke-linejoin="round" stroke-miterlimit="10" stroke-width="1.5"/>
 <path d="m3.5 9.09h17" stroke="#292D32" stroke-linecap="round" stroke-linejoin="round" stroke-miterlimit="10" stroke-width="1.5"/>
 <path d="m21 8.5v8.5c0 3-1.5 5-5 5h-8c-3.5 0-5-2-5-5v-8.5c0-3 1.5-5 5-5h8c3.5 0 5 2 5 5z" stroke="#292D32" stroke-linecap="round" stroke-linejoin="round" stroke-miterlimit="10" stroke-width="1.5"/>
 <path d="m15.695 13.7h9e-3" stroke="#292D32" stroke-linecap="round" stroke-linejoin="round" stroke-width="2"/>
 <path d="m15.695 16.7h9e-3" stroke="#292D32" stroke-linecap="round" stroke-linejoin="round" stroke-width="2"/>
 <path d="m11.996 13.7h9e-3" stroke="#292D32" stroke-linecap="round" stroke-linejoin="round" stroke-width="2"/>
 <path d="m11.996 16.7h9e-3" stroke="#292D32" stroke-linecap="round" stroke-linejoin="round" stroke-width="2"/>
 <path d="m8.2943 13.7h0.00898" stroke="#292D32" stroke-linecap="round" stroke-linejoin="round" stroke-width="2"/>
 <path d="m8.2943 16.7h0.00898" stroke="#292D32" stroke-linecap="round" stroke-linejoin="round" stroke-width="2"/>
</svg>
