<?xml version="1.0" encoding="UTF-8"?>
<svg width="800px" height="800px" fill="none" viewBox="0 0 24 24" xmlns="http://www.w3.org/2000/svg">
 <path d="m21.529 15.929c-0.16-0.27-0.61-0.69-1.73-0.49-0.62 0.11-1.25 0.16-1.88 0.13-2.33-0.1-4.44-1.17-5.91-2.82-1.3-1.45-2.1-3.34-2.11-5.38 0-1.14 0.21997-2.24 0.66997-3.28 0.44-1.01 0.13-1.54-0.09-1.76-0.23-0.23-0.76997-0.55-1.83-0.11-4.09 1.72-6.62 5.82-6.32 10.21 0.3 4.13 3.2 7.66 7.04 8.99 0.91997 0.32 1.89 0.51 2.89 0.55 0.16 0.01 0.32 0.02 0.48 0.02 3.35 0 6.49-1.58 8.47-4.27 0.67-0.93 0.49-1.52 0.32-1.79z" fill="#292D32"/>
</svg>
