<?xml version="1.0" encoding="UTF-8"?>
<svg width="800px" height="800px" fill="none" viewBox="0 0 24 24" xmlns="http://www.w3.org/2000/svg">
 <path d="m19.06 18.67-2.14-4.27-2.14 4.27" stroke="#292D32" stroke-linecap="round" stroke-linejoin="round" stroke-width="1.5"/>
 <path d="m15.17 17.91h3.52" stroke="#292D32" stroke-linecap="round" stroke-linejoin="round" stroke-width="1.5"/>
 <path d="m16.92 22c-2.8 0-5.08-2.2701-5.08-5.0801 0-2.8 2.27-5.0799 5.08-5.0799 2.8 0 5.08 2.2699 5.08 5.0799s-2.27 5.0801-5.08 5.0801z" stroke="#292D32" stroke-linecap="round" stroke-linejoin="round" stroke-width="1.5"/>
 <path d="m5.02 2h3.92c2.07 0 3.07 1 3.02 3.02v3.92c0.05 2.07-0.95 3.07-3.02 3.02h-3.92c-2.02 0.04-3.02-0.96-3.02-3.03v-3.92c0-2.01 1-3.01 3.02-3.01z" stroke="#292D32" stroke-linecap="round" stroke-linejoin="round" stroke-width="1.5"/>
 <path d="m9.01 5.8498h-4.06" stroke="#292D32" stroke-linecap="round" stroke-linejoin="round" stroke-width="1.5"/>
 <path d="m6.97 5.1699v0.67999" stroke="#292D32" stroke-linecap="round" stroke-linejoin="round" stroke-width="1.5"/>
 <path d="m7.9899 5.8398c0 1.75-1.37 3.17-3.05 3.17" stroke="#292D32" stroke-linecap="round" stroke-linejoin="round" stroke-width="1.5"/>
 <path d="m9.0099 9.01c-0.73 0-1.39-0.39001-1.85-1.01" stroke="#292D32" stroke-linecap="round" stroke-linejoin="round" stroke-width="1.5"/>
 <path d="m2 15c0 3.87 3.13 7 7 7l-1.05-1.75" stroke="#292D32" stroke-linecap="round" stroke-linejoin="round" stroke-width="1.5"/>
 <path d="m22 9c0-3.87-3.13-7-7-7l1.05 1.75" stroke="#292D32" stroke-linecap="round" stroke-linejoin="round" stroke-width="1.5"/>
</svg>
