<?xml version="1.0" encoding="UTF-8"?>
<svg width="800px" height="800px" fill="none" viewBox="0 0 24 24" xmlns="http://www.w3.org/2000/svg">
 <path d="m10.97 2h-2c-5 0-7 2-7 7v6c0 5 2 7 7 7h6c5 0 7-2 7-7v-2" stroke="#292D32" stroke-linecap="round" stroke-linejoin="round" stroke-width="1.5"/>
 <path d="m21.88 3.56c-1.23 3.07-4.32 7.25-6.9 9.32l-1.58 1.26c-0.2 0.15-0.4 0.27-0.63 0.36 0-0.15-0.01-0.3-0.03-0.46-0.09-0.67-0.39-1.3-0.93-1.83-0.55-0.55-1.21-0.86-1.89-0.95-0.16-0.01-0.32-0.02-0.48-0.01 0.09-0.25 0.22-0.48 0.39-0.67l1.26-1.58c2.07-2.58 6.26-5.69 9.32-6.92 0.47-0.18 0.93-0.04 1.22 0.25 0.3 0.3 0.44 0.76 0.25 1.23z" stroke="#292D32" stroke-linecap="round" stroke-linejoin="round" stroke-width="1.5"/>
 <path d="m12.78 14.49c0 0.88-0.34 1.72-0.97 2.36-0.49 0.49-1.15 0.83-1.94 0.93l-1.97 0.21c-1.07 0.12-1.99-0.79-1.87-1.88l0.21-1.97c0.19-1.75 1.65-2.87 3.21-2.9 0.16-0.01 0.32 0 0.48 0.01 0.68 0.09 1.34 0.4 1.89 0.95 0.54 0.54 0.84 1.16 0.93 1.83 0.02 0.16 0.03 0.32 0.03 0.46z" stroke="#292D32" stroke-linecap="round" stroke-linejoin="round" stroke-width="1.5"/>
 <path d="m15.82 11.98c0-2.09-1.69-3.79-3.79-3.79" stroke="#292D32" stroke-linecap="round" stroke-linejoin="round" stroke-width="1.5"/>
</svg>
