<?xml version="1.0" encoding="UTF-8"?>
<svg width="800px" height="800px" fill="none" viewBox="0 0 24 24" xmlns="http://www.w3.org/2000/svg">
 <path d="m21.97 18.33c0 0.36-0.08 0.73-0.25 1.09s-0.39 0.7-0.68 1.02c-0.49 0.54-1.03 0.93-1.64 1.18-0.6 0.25-1.25 0.38-1.95 0.38-1.02 0-2.11-0.24-3.26-0.73s-2.3-1.15-3.44-1.98c-1.15-0.84-2.24-1.77-3.28-2.8-1.03-1.04-1.96-2.13-2.79-3.27-0.82-1.14-1.48-2.28-1.96-3.41-0.48-1.14-0.72-2.23-0.72-3.27 0-0.68 0.12-1.33 0.36-1.93 0.24-0.61 0.62-1.17 1.15-1.67 0.64-0.63 1.34-0.94 2.08-0.94 0.28 0 0.56 0.06 0.81 0.18 0.26 0.12 0.49 0.3 0.67 0.56l2.32 3.27c0.18 0.25 0.31 0.48 0.4 0.7 0.09 0.21 0.14 0.42 0.14 0.61 0 0.24-0.07 0.48-0.21 0.71-0.13 0.23-0.32 0.47-0.56 0.71l-0.76 0.79c-0.11 0.11-0.16 0.24-0.16 0.4 0 0.08 0.01 0.15 0.03 0.23 0.03 0.08 0.06 0.14 0.08 0.2 0.18 0.33 0.49 0.76 0.93 1.28 0.45 0.52 0.93 1.05 1.45 1.58 0.54 0.53 1.06 1.02 1.59 1.47 0.52 0.44 0.95 0.74 1.29 0.92 0.05 0.02 0.11 0.05 0.18 0.08 0.08 0.03 0.16 0.04 0.25 0.04 0.17 0 0.3-0.06 0.41-0.17l0.76-0.75c0.25-0.25 0.49-0.44 0.72-0.56 0.23-0.14 0.46-0.21 0.71-0.21 0.19 0 0.39 0.04 0.61 0.13s0.45 0.22 0.7 0.39l3.31 2.35c0.26 0.18 0.44 0.39 0.55 0.64 0.1 0.25 0.16 0.5 0.16 0.78z" stroke="#292D32" stroke-miterlimit="10" stroke-width="1.5"/>
</svg>
