<?xml version="1.0" encoding="UTF-8"?>
<svg width="800px" height="800px" version="1.1" viewBox="0 0 24 24" xmlns="http://www.w3.org/2000/svg">
 <title>ic_fluent_live_24_regular</title>
 <desc>Created with Sketch.</desc>
 <g fill="none" fill-rule="evenodd">
  <g fill="#212121" fill-rule="nonzero">
   <path d="m5.9896 4.9289c0.29289 0.29289 0.29289 0.76777 0 1.0607-3.3195 3.3195-3.3195 8.7014 0 12.021 0.29289 0.29289 0.29289 0.76777 0 1.0607s-0.76777 0.29289-1.0607 0c-3.9052-3.9052-3.9052-10.237 0-14.142 0.29289-0.29289 0.76777-0.29289 1.0607 0zm13.081 0c3.9052 3.9052 3.9052 10.237 0 14.142-0.29289 0.29289-0.76777 0.29289-1.0607 0-0.29289-0.29289-0.29289-0.76777 0-1.0607 3.3195-3.3195 3.3195-8.7014 0-12.021-0.29289-0.29289-0.29289-0.76777 0-1.0607 0.29289-0.29289 0.76777-0.29289 1.0607 0zm-10.253 2.8284c0.29289 0.29289 0.29289 0.76777 0 1.0607-1.7574 1.7574-1.7574 4.6066 0 6.364 0.29289 0.29289 0.29289 0.76777 0 1.0607-0.29289 0.29289-0.76777 0.29289-1.0607 0-2.3431-2.3431-2.3431-6.1421 0-8.4853 0.29289-0.29289 0.76777-0.29289 1.0607 0zm7.4246 0c2.3431 2.3431 2.3431 6.1421 0 8.4853-0.29289 0.29289-0.76777 0.29289-1.0607 0s-0.29289-0.76777 0-1.0607c1.7574-1.7574 1.7574-4.6066 0-6.364-0.29289-0.29289-0.29289-0.76777 0-1.0607s0.76777-0.29289 1.0607 0zm-4.2426 2.7426c0.82843 0 1.5 0.67157 1.5 1.5s-0.67157 1.5-1.5 1.5-1.5-0.67157-1.5-1.5 0.67157-1.5 1.5-1.5z"></path>
  </g>
 </g>
</svg>
