<?xml version="1.0" encoding="UTF-8"?>
<svg width="800px" height="800px" fill="#000000" viewBox="0 0 24 24" xmlns="http://www.w3.org/2000/svg">
 <path d="m11.594 2.0874c0.22158-0.098449 0.47001-0.11251 0.69926-0.042192l0.11281 0.042192 9 3.9988c0.36197 0.16083 0.5914 0.51788 0.59398 0.90682l-0.0061279 0.11747-0.5724 5.1516c-0.29258 2.6333-1.7296 4.9983-3.919 6.472l-0.25594 0.16605-4.7165 2.9478c-0.28824 0.18015-0.64537 0.20017-0.94892 0.06005l-0.11108-0.06005-4.7165-2.9478c-2.2467-1.4042-3.7561-3.7238-4.1361-6.3355l-0.038816-0.30261-0.5724-5.1516c-0.043741-0.39367 0.14881-0.77189 0.48333-0.97032l0.10452-0.05397 9-3.9988zm0.40604 2.0081-7.9253 3.5213 0.4916 4.4244c0.22604 2.0344 1.3303 3.863 3.014 5.0107l0.23316 0.15224 4.1865 2.6166 4.1865-2.6166c1.7358-1.0849 2.9057-2.8722 3.211-4.8869l0.03624-0.2761 0.4916-4.4244-7.9253-3.5213zm2.2136 4.2867c0.34121-0.43427 0.96987-0.50971 1.4041-0.1685 0.40087 0.31497 0.49598 0.87485 0.23987 1.3007l-0.071372 0.10345-4 4.9999c-0.34394 0.43774-0.9713 0.50505-1.3986 0.17301l-0.094833-0.083726-2-2c-0.39052-0.39052-0.39052-1.0237 0-1.4142 0.36048-0.36048 0.92771-0.38821 1.32-0.083188l0.094207 0.083188 1.203 1.2029 3.3036-4.1136z" fill-rule="evenodd"/>
</svg>
