<?xml version="1.0" encoding="UTF-8"?>
<!-- Uploaded to: SVG Repo, www.svgrepo.com, Generator: SVG Repo Mixer Tools -->
<svg width="800px" height="800px" fill="none" viewBox="0 0 24 24" xmlns="http://www.w3.org/2000/svg">
 <path d="m10.07 2.8201-6.93 5.55c-0.78 0.62-1.28 1.93-1.11 2.91l1.33 7.96c0.24 1.42 1.6 2.57 3.04 2.57h11.2c1.43 0 2.8-1.16 3.04-2.57l1.33-7.96c0.16-0.98-0.34-2.29-1.11-2.91l-6.93-5.54c-1.07-0.86-2.8-0.86001-3.86-0.01001z" stroke="#292D32" stroke-linecap="round" stroke-linejoin="round" stroke-width="1.5"/>
 <path d="m12 15.5c1.3807 0 2.5-1.1193 2.5-2.5s-1.1193-2.5-2.5-2.5-2.5 1.1193-2.5 2.5 1.1193 2.5 2.5 2.5z" stroke="#292D32" stroke-linecap="round" stroke-linejoin="round" stroke-width="1.5"/>
</svg>
