<?xml version="1.0" encoding="UTF-8"?>
<svg width="800px" height="800px" fill="none" viewBox="0 0 24 24" xmlns="http://www.w3.org/2000/svg">
 <path d="m7.48 18.35 3.1 2.4c0.4 0.4 1.3 0.6 1.9 0.6h3.8c1.2 0 2.5-0.9 2.8-2.1l2.4-7.3c0.5-1.4-0.4-2.6-1.9-2.6h-4c-0.6 0-1.1-0.5-1-1.2l0.5-3.2c0.2-0.9-0.4-1.9-1.3-2.2-0.8-0.3-1.8 0.1-2.2 0.7l-4.1 6.1" stroke="#292D32" stroke-miterlimit="10" stroke-width="1.5"/>
 <path d="m2.38 18.35v-9.8c0-1.4 0.6-1.9 2-1.9h1c1.4 0 2 0.5 2 1.9v9.8c0 1.4-0.6 1.9-2 1.9h-1c-1.4 0-2-0.5-2-1.9z" stroke="#292D32" stroke-linecap="round" stroke-linejoin="round" stroke-width="1.5"/>
</svg>
