<?xml version="1.0" encoding="UTF-8"?>
<svg width="800px" height="800px" fill="none" viewBox="0 0 24 24" xmlns="http://www.w3.org/2000/svg">
 <path d="m17 21h-10c-4 0-5-1-5-5v-8c0-4 1-5 5-5h10c4 0 5 1 5 5v8c0 4-1 5-5 5z" stroke="#292D32" stroke-linecap="round" stroke-linejoin="round" stroke-width="1.5"/>
 <path d="m14 8h5" stroke="#292D32" stroke-linecap="round" stroke-linejoin="round" stroke-width="1.5"/>
 <path d="m15 12h4" stroke="#292D32" stroke-linecap="round" stroke-linejoin="round" stroke-width="1.5"/>
 <path d="m17 16h2" stroke="#292D32" stroke-linecap="round" stroke-linejoin="round" stroke-width="1.5"/>
 <path d="m8.4999 11.29c0.99964 0 1.81-0.8103 1.81-1.81 0-0.99963-0.81032-1.81-1.81-1.81-0.99963 0-1.81 0.81037-1.81 1.81 0 0.99968 0.81037 1.81 1.81 1.81z" stroke="#292D32" stroke-linecap="round" stroke-linejoin="round" stroke-width="1.5"/>
 <path d="m12 16.33c-0.14-1.45-1.29-2.59-2.74-2.72-0.5-0.05-1.01-0.05-1.52 0-1.45 0.14-2.6 1.27-2.74 2.72" stroke="#292D32" stroke-linecap="round" stroke-linejoin="round" stroke-width="1.5"/>
</svg>
