<?xml version="1.0" encoding="UTF-8"?>
<!-- Uploaded to: SVG Repo, www.svgrepo.com, Generator: SVG Repo Mixer Tools -->
<svg width="800px" height="800px" fill="none" viewBox="0 0 24 24" xmlns="http://www.w3.org/2000/svg">
 <path d="m16.42 7.95c2.44 2.44 2.44 6.4 0 8.84s-6.4 2.44-8.84 0-2.44-6.4 0-8.84 6.4-2.44 8.84 0z" stroke="#292D32" stroke-linecap="round" stroke-linejoin="round" stroke-width="1.5"/>
 <path d="m8.25 21.64c-2-0.8-3.75-2.25-4.91-4.26-1.14-1.97-1.52-4.16-1.25-6.25" stroke="#292D32" stroke-linecap="round" stroke-linejoin="round" stroke-width="1.5"/>
 <path d="m5.85 4.48c1.7-1.33 3.83-2.12 6.15-2.12 2.27 0 4.36 0.76998 6.04 2.05" stroke="#292D32" stroke-linecap="round" stroke-linejoin="round" stroke-width="1.5"/>
 <path d="m15.75 21.64c2-0.8 3.75-2.25 4.91-4.26 1.14-1.97 1.52-4.16 1.25-6.25" stroke="#292D32" stroke-linecap="round" stroke-linejoin="round" stroke-width="1.5"/>
</svg>
