<?xml version="1.0" encoding="UTF-8"?>
<svg width="800px" height="800px" fill="none" viewBox="0 0 24 24" xmlns="http://www.w3.org/2000/svg">
 <path d="m12 12c2.7614 0 5-2.2386 5-5s-2.2386-5-5-5c-2.7614 0-5 2.2386-5 5s2.2386 5 5 5z" stroke="#292D32" stroke-linecap="round" stroke-linejoin="round" stroke-width="1.5"/>
 <path d="m3.4099 22c0-3.87 3.85-7 8.59-7 0.96 0 1.89 0.13 2.76 0.37" stroke="#292D32" stroke-linecap="round" stroke-linejoin="round" stroke-width="1.5"/>
 <path d="m22 18c0 0.32-0.04 0.63-0.12 0.93-0.09 0.4-0.25 0.79-0.46 1.13-0.69 1.16-1.96 1.94-3.42 1.94-1.03 0-1.96-0.39-2.66-1.03-0.3-0.26-0.56-0.57-0.76-0.91-0.37-0.6-0.58-1.31-0.58-2.06 0-1.08 0.43-2.07 1.13-2.79 0.73-0.75 1.75-1.21 2.87-1.21 1.18 0 2.25 0.51 2.97 1.33 0.64 0.71 1.03 1.65 1.03 2.67z" stroke="#292D32" stroke-linecap="round" stroke-linejoin="round" stroke-miterlimit="10" stroke-width="1.5"/>
 <path d="m19.49 17.98h-2.98" stroke="#292D32" stroke-linecap="round" stroke-linejoin="round" stroke-miterlimit="10" stroke-width="1.5"/>
</svg>
